<?xml version="1.0" encoding="utf-8"?>
<!-- Generator: Adobe Illustrator 28.3.0, SVG Export Plug-In . SVG Version: 6.00 Build 0)  -->
<svg version="1.1" id="图层_1" xmlns="http://www.w3.org/2000/svg" xmlns:xlink="http://www.w3.org/1999/xlink" x="0px" y="0px"
	 viewBox="0 0 36 36" style="enable-background:new 0 0 36 36;" xml:space="preserve">
<style type="text/css">
	.st0{fill:#48484C;}
	.st1{fill:#FEF7E6;}
	.st2{fill:#727274;}
	.st3{fill:#292F33;}
	.st4{fill:#FFD24F;}
	.st5{fill:#231815;}
</style>
<path class="st0" d="M15.1,9.9c0.5,2.3-1.1,3.4-3.6,5.1c-2.7,0.4-6.6,3.3-8.7-2.4c-1.3-3.2-2-10-0.5-10.3C7.3,2.8,15.2,6.9,15.1,9.9
	z"/>
<path class="st1" d="M12.8,9.9c0.9,1.4-2.2,3.8-3.8,4.6c-1.6,0.7-3.2-0.3-4.5-3.8C3.9,9.1,3.1,4.5,3.7,4.3c0.2-0.1,3.8,2.5,4.9,3.8
	C10.3,10.3,11.4,9.4,12.8,9.9z"/>
<path class="st0" d="M33.7,2.3c1.5,0.2,0.8,7-0.5,10.3c-2.1,5.7-6,2.8-8.7,2.4c-2.5-1.7-4.1-2.8-3.6-5.1C20.8,6.9,28.7,2.8,33.7,2.3
	z"/>
<path class="st1" d="M27.4,8.1c1.1-1.3,4.6-4,4.9-3.8c0.6,0.3-0.2,4.9-0.8,6.4c-1.3,3.4-2.8,4.5-4.5,3.8c-1.6-0.7-4.7-3.2-3.8-4.6
	C24.6,9.4,25.7,10.3,27.4,8.1z"/>
<path class="st0" d="M32.5,26.7c0.1,0.4,0.2,0.8,0.1,1.3c-3.2-1.5-4.8-1.4-6.5-0.4c-2.8,1.7-4.1,2.9-7.9,2.9s-5.3-1.1-8.1-2.9
	c-1.7-1-3.2-1.1-6.5,0.4c0-0.5,0-1,0.1-1.3c0-0.4,0.2-1,0.4-1.5c-0.6,0-1.5,0.2-2.8,0.8c0-0.5,0.1-1,0.3-1.4H1.4
	c1.1-3.3,3.3-5.5,3.3-5.5h-2c2.3-4.7,4.2-7.2,7.3-8.8c1.4-0.9,4.4-2.1,8.1-2.1s6.8,1.2,8.1,2.1c3.1,1.5,5,4.1,7.3,8.8h-2.2
	c0,0,2.2,2.2,3.3,5.5h-0.1c0.2,0.4,0.3,0.8,0.3,1.4c-1.3-0.6-2.2-0.8-2.8-0.8C32.2,25.7,32.5,26.3,32.5,26.7z"/>
<path class="st2" d="M18,31.1c-3.6,0-5.5-1.2-7.3-2.6c-2.2-1.7-3.6-2.9-6.4-1c0-1.2,1.3-3.4,1.3-3.4s-0.9-0.4-3.3,0.7
	c0.4-1.4,2.8-3.6,6.8-3.4c3.1,0.2,3.6,0.7,5.1,1.7c0.2,2.6,1.4,4.2,3.7,4.5"/>
<path class="st2" d="M18,27.7c2.2-0.3,3.5-2,3.7-4.5c1.5-1.1,2-1.5,5.1-1.7c4.1-0.2,6.4,2,6.8,3.4c-2.3-1.2-3.3-0.7-3.3-0.7
	s1.3,2.2,1.3,3.4c-2.8-1.9-4.1-0.7-6.4,1c-1.8,1.4-3.8,2.6-7.3,2.6"/>
<path class="st1" d="M30.1,23.9c0,0,1.3,2.1,1.3,3.2c-2.7-1.8-3.6-0.2-5.8,1.4c-1.8,1.3-4.1,2.8-7.6,2.8s-5.8-1.5-7.6-2.8
	c-2.2-1.6-3.1-3.2-5.8-1.4c0-1.1,1.3-3.2,1.3-3.2S5,23.5,2.7,24.6c0.4-1.3,2.8-3.2,6.8-3c3,0.2,3.3,0.6,4.8,1.6
	c0.2,2.4,1.5,3.8,3.7,4.1c2.2-0.3,3.5-1.7,3.7-4.1c1.5-1,1.8-1.4,4.8-1.6c4-0.2,6.4,1.7,6.8,3C31,23.5,30.1,23.9,30.1,23.9z"/>
<path class="st3" d="M20.6,26.5c0.1,0.5-1.6,2-2.6,2s-2.7-1.5-2.6-2c0.1-0.5,1.2-0.7,2.6-0.7S20.5,26,20.6,26.5z"/>
<path class="st1" d="M6.1,20.2c0,0,2.9-4.2,8-3.1c1.4,0.3,1,1.8-0.2,1.6C10,17.8,6.1,20.2,6.1,20.2z"/>
<path class="st1" d="M29.9,20.2c0,0-2.9-4.2-8-3.1c-1.4,0.3-1,1.8,0.2,1.6C26,17.8,29.9,20.2,29.9,20.2z"/>
<path class="st4" d="M6.5,21.9c1.9-0.4,3.8-0.3,4.4-0.1c0,0,0.1,1.2-0.9,1.3C8.8,23.4,6.5,21.9,6.5,21.9z"/>
<path class="st4" d="M26,23.1c-1-0.1-0.9-1.3-0.9-1.3c0.6-0.2,2.6-0.3,4.4,0.1C29.5,21.9,27.2,23.4,26,23.1z"/>
<path class="st1" d="M22.1,7.6c0,0-2.4-2.5-6.8-2.4c0,0,1.4,0.1,2.1,0.6c0,0-3.4-0.7-6.9,1.8c0,0,0.3-0.2,0.8,0c0,0-4.4,3.5-4.1,8.4
	c0,0,7.2,0.2,10.8-3.6c0,0-0.4,0.6-0.9,0.9c0,0,2.1-0.5,4.2-2.9C22,9.5,22.1,7.6,22.1,7.6z"/>
<ellipse class="st5" cx="12.5" cy="22.4" rx="1.3" ry="2"/>
<ellipse class="st5" cx="23.5" cy="22.4" rx="1.3" ry="2"/>
</svg>
